<?xml version="1.0" encoding="utf-8"?>
<!DOCTYPE svg PUBLIC "-//W3C//DTD SVG 20010904//EN" "http://www.w3.org/TR/2001/REC-SVG-20010904/DTD/svg10.dtd">
<svg version="1.0" xmlns="http://www.w3.org/2000/svg" width="162pt" height="162pt" viewBox="0 0 162 162" style="" preserveAspectRatio="xMidYMid meet">
<g fill="#654B17FF" stroke="#654B17FF">
<path d="M 81.000 26.000 L 81.000 31.000 71.000 31.000 L 61.000 31.000 61.000 36.000 L 61.000 41.000 51.000 41.000 L 41.000 41.000 41.000 46.000 L 41.000 51.000 31.000 51.000 L 21.000 51.000 21.000 56.000 L 21.000 61.000 16.000 61.000 L 11.000 61.000 11.000 66.000 L 11.000 71.000 16.000 71.000 L 21.000 71.000 21.000 76.000 L 21.000 81.000 26.000 81.000 L 31.000 81.000 31.000 86.000 L 31.000 91.000 36.000 91.000 L 41.000 91.000 41.000 96.000 L 41.000 101.000 46.000 101.000 L 51.000 101.000 51.000 106.000 L 51.000 111.000 56.000 111.000 L 61.000 111.000 61.000 106.000 L 61.000 101.000 71.000 101.000 L 81.000 101.000 81.000 96.000 L 81.000 91.000 91.000 91.000 L 101.000 91.000 101.000 86.000 L 101.000 81.000 111.000 81.000 L 121.000 81.000 121.000 76.000 L 121.000 71.000 131.000 71.000 L 141.000 71.000 141.000 61.000 L 141.000 51.000 136.000 51.000 L 131.000 51.000 131.000 46.000 L 131.000 41.000 126.000 41.000 L 121.000 41.000 121.000 36.000 L 121.000 31.000 116.000 31.000 L 111.000 31.000 111.000 26.000 L 111.000 21.000 96.000 21.000 L 81.000 21.000 81.000 26.000 M 91.000 46.000 L 91.000 51.000 96.000 51.000 L 101.000 51.000 101.000 56.000 L 101.000 61.000 106.000 61.000 L 111.000 61.000 111.000 66.000 L 111.000 71.000 106.000 71.000 L 101.000 71.000 101.000 66.000 L 101.000 61.000 96.000 61.000 L 91.000 61.000 91.000 56.000 L 91.000 51.000 86.000 51.000 L 81.000 51.000 81.000 46.000 L 81.000 41.000 86.000 41.000 L 91.000 41.000 91.000 46.000 M 61.000 66.000 L 61.000 71.000 66.000 71.000 L 71.000 71.000 71.000 76.000 L 71.000 81.000 66.000 81.000 L 61.000 81.000 61.000 76.000 L 61.000 71.000 56.000 71.000 L 51.000 71.000 51.000 66.000 L 51.000 61.000 56.000 61.000 L 61.000 61.000 61.000 66.000 "/></g>
<g fill="#312104FF" stroke="#312104FF">
<path d="M 81.000 16.000 L 81.000 21.000 71.000 21.000 L 61.000 21.000 61.000 26.000 L 61.000 31.000 51.000 31.000 L 41.000 31.000 41.000 36.000 L 41.000 41.000 31.000 41.000 L 21.000 41.000 21.000 46.000 L 21.000 51.000 11.000 51.000 L 1.000 51.000 1.000 76.000 L 1.000 101.000 6.000 101.000 L 11.000 101.000 11.000 106.000 L 11.000 111.000 16.000 111.000 L 21.000 111.000 21.000 116.000 L 21.000 121.000 26.000 121.000 L 31.000 121.000 31.000 126.000 L 31.000 131.000 36.000 131.000 L 41.000 131.000 41.000 136.000 L 41.000 141.000 46.000 141.000 L 51.000 141.000 51.000 146.000 L 51.000 151.000 66.000 151.000 L 81.000 151.000 81.000 146.000 L 81.000 141.000 91.000 141.000 L 101.000 141.000 101.000 136.000 L 101.000 131.000 111.000 131.000 L 121.000 131.000 121.000 126.000 L 121.000 121.000 131.000 121.000 L 141.000 121.000 141.000 116.000 L 141.000 111.000 151.000 111.000 L 161.000 111.000 161.000 101.000 L 161.000 91.000 151.000 91.000 L 141.000 91.000 141.000 96.000 L 141.000 101.000 131.000 101.000 L 121.000 101.000 121.000 106.000 L 121.000 111.000 111.000 111.000 L 101.000 111.000 101.000 116.000 L 101.000 121.000 91.000 121.000 L 81.000 121.000 81.000 126.000 L 81.000 131.000 71.000 131.000 L 61.000 131.000 61.000 136.000 L 61.000 141.000 56.000 141.000 L 51.000 141.000 51.000 136.000 L 51.000 131.000 46.000 131.000 L 41.000 131.000 41.000 126.000 L 41.000 121.000 36.000 121.000 L 31.000 121.000 31.000 116.000 L 31.000 111.000 26.000 111.000 L 21.000 111.000 21.000 106.000 L 21.000 101.000 16.000 101.000 L 11.000 101.000 11.000 96.000 L 11.000 91.000 16.000 91.000 L 21.000 91.000 21.000 81.000 L 21.000 71.000 16.000 71.000 L 11.000 71.000 11.000 66.000 L 11.000 61.000 16.000 61.000 L 21.000 61.000 21.000 56.000 L 21.000 51.000 31.000 51.000 L 41.000 51.000 41.000 46.000 L 41.000 41.000 51.000 41.000 L 61.000 41.000 61.000 36.000 L 61.000 31.000 71.000 31.000 L 81.000 31.000 81.000 26.000 L 81.000 21.000 96.000 21.000 L 111.000 21.000 111.000 26.000 L 111.000 31.000 116.000 31.000 L 121.000 31.000 121.000 36.000 L 121.000 41.000 126.000 41.000 L 131.000 41.000 131.000 46.000 L 131.000 51.000 136.000 51.000 L 141.000 51.000 141.000 61.000 L 141.000 71.000 131.000 71.000 L 121.000 71.000 121.000 76.000 L 121.000 81.000 111.000 81.000 L 101.000 81.000 101.000 86.000 L 101.000 91.000 91.000 91.000 L 81.000 91.000 81.000 96.000 L 81.000 101.000 71.000 101.000 L 61.000 101.000 61.000 106.000 L 61.000 111.000 71.000 111.000 L 81.000 111.000 81.000 106.000 L 81.000 101.000 91.000 101.000 L 101.000 101.000 101.000 96.000 L 101.000 91.000 111.000 91.000 L 121.000 91.000 121.000 86.000 L 121.000 81.000 131.000 81.000 L 141.000 81.000 141.000 76.000 L 141.000 71.000 151.000 71.000 L 161.000 71.000 161.000 66.000 L 161.000 61.000 156.000 61.000 L 151.000 61.000 151.000 56.000 L 151.000 51.000 146.000 51.000 L 141.000 51.000 141.000 46.000 L 141.000 41.000 136.000 41.000 L 131.000 41.000 131.000 36.000 L 131.000 31.000 126.000 31.000 L 121.000 31.000 121.000 26.000 L 121.000 21.000 116.000 21.000 L 111.000 21.000 111.000 16.000 L 111.000 11.000 96.000 11.000 L 81.000 11.000 81.000 16.000 "/></g>
<g fill="#B7B7B7FF" stroke="#B7B7B7FF">
<path d="M 21.000 91.000 L 21.000 101.000 26.000 101.000 L 31.000 101.000 31.000 106.000 L 31.000 111.000 36.000 111.000 L 41.000 111.000 41.000 116.000 L 41.000 121.000 46.000 121.000 L 51.000 121.000 51.000 126.000 L 51.000 131.000 66.000 131.000 L 81.000 131.000 81.000 126.000 L 81.000 121.000 91.000 121.000 L 101.000 121.000 101.000 116.000 L 101.000 111.000 111.000 111.000 L 121.000 111.000 121.000 106.000 L 121.000 101.000 131.000 101.000 L 141.000 101.000 141.000 96.000 L 141.000 91.000 146.000 91.000 L 151.000 91.000 151.000 86.000 L 151.000 81.000 136.000 81.000 L 121.000 81.000 121.000 86.000 L 121.000 91.000 111.000 91.000 L 101.000 91.000 101.000 96.000 L 101.000 101.000 91.000 101.000 L 81.000 101.000 81.000 106.000 L 81.000 111.000 66.000 111.000 L 51.000 111.000 51.000 106.000 L 51.000 101.000 46.000 101.000 L 41.000 101.000 41.000 96.000 L 41.000 91.000 36.000 91.000 L 31.000 91.000 31.000 86.000 L 31.000 81.000 26.000 81.000 L 21.000 81.000 21.000 91.000 "/></g>
<g fill="#654B17FF" stroke="#654B17FF">
<path d="M 11.000 96.000 L 11.000 101.000 16.000 101.000 L 21.000 101.000 21.000 106.000 L 21.000 111.000 26.000 111.000 L 31.000 111.000 31.000 116.000 L 31.000 121.000 36.000 121.000 L 41.000 121.000 41.000 126.000 L 41.000 131.000 46.000 131.000 L 51.000 131.000 51.000 136.000 L 51.000 141.000 56.000 141.000 L 61.000 141.000 61.000 136.000 L 61.000 131.000 56.000 131.000 L 51.000 131.000 51.000 126.000 L 51.000 121.000 46.000 121.000 L 41.000 121.000 41.000 116.000 L 41.000 111.000 36.000 111.000 L 31.000 111.000 31.000 106.000 L 31.000 101.000 26.000 101.000 L 21.000 101.000 21.000 96.000 L 21.000 91.000 16.000 91.000 L 11.000 91.000 11.000 96.000 "/></g>
<g fill="#312104FF" stroke="#312104FF">
<path d="M 81.000 46.000 L 81.000 51.000 86.000 51.000 L 91.000 51.000 91.000 56.000 L 91.000 61.000 96.000 61.000 L 101.000 61.000 101.000 66.000 L 101.000 71.000 106.000 71.000 L 111.000 71.000 111.000 66.000 L 111.000 61.000 106.000 61.000 L 101.000 61.000 101.000 56.000 L 101.000 51.000 96.000 51.000 L 91.000 51.000 91.000 46.000 L 91.000 41.000 86.000 41.000 L 81.000 41.000 81.000 46.000 "/></g>
<g fill="#312104FF" stroke="#312104FF">
<path d="M 51.000 66.000 L 51.000 71.000 56.000 71.000 L 61.000 71.000 61.000 76.000 L 61.000 81.000 66.000 81.000 L 71.000 81.000 71.000 76.000 L 71.000 71.000 66.000 71.000 L 61.000 71.000 61.000 66.000 L 61.000 61.000 56.000 61.000 L 51.000 61.000 51.000 66.000 "/></g>
<g fill="#5B5B5BFF" stroke="#5B5B5BFF">
<path d="M 141.000 76.000 L 141.000 81.000 146.000 81.000 L 151.000 81.000 151.000 76.000 L 151.000 71.000 146.000 71.000 L 141.000 71.000 141.000 76.000 "/></g>
</svg>
